# xmcd CD database file
#
# Track frame offsets:
#	150
#	9842
#	21532
#	31885
#	42197
#	52050
#	64045
#	75835
#	88760
#	100757
#	112637
#	123367
#	133010
#	143087
#	154805
#	165035
#
# Disc length: 2330 seconds
#
# Revision: 2
# Processed by: cddbd v1.5.2PL0 Copyright (c) Steve Scherf et al.
# Submitted via: CDex 1.51
#
DISCID=b7091810
DTITLE=Farmer Boys - Flash Crash and Thunder
DYEAR=1900
DGENRE=Country
TTITLE0=Flash, Crash and Thunder 
TTITLE1=Cool Down Mame 
TTITLE2=Yearning, Burning Heart 
TTITLE3=Somehow, Someway, Someday
TTITLE4=Flip Flop 
TTITLE5=Charming Betsy 
TTITLE6=Lend a Helpin' Hand 
TTITLE7=It Pays To Advertise 
TTITLE8=Someone To Love 
TTITLE9=My Baby Done Left Me 
TTITLE10=Oh, How It Hurts! 
TTITLE11=No One 
TTITLE12=You Lied 
TTITLE13=You're a Humdinger 
TTITLE14=I'm Just Too Lazy 
TTITLE15=onions, onions 1955
EXTD=
EXTT0=
EXTT1=
EXTT2=
EXTT3=
EXTT4=
EXTT5=
EXTT6=
EXTT7=
EXTT8=
EXTT9=
EXTT10=
EXTT11=
EXTT12=
EXTT13=
EXTT14=
EXTT15=
PLAYORDER=
